<?xml version="1.0" encoding="iso-8859-1"?>
<!-- Generator: Adobe Illustrator 28.5.0, SVG Export Plug-In . SVG Version: 9.03 Build 54727)  -->
<svg version="1.1" xmlns="http://www.w3.org/2000/svg" xmlns:xlink="http://www.w3.org/1999/xlink" x="0px" y="0px"
	 viewBox="0 0 243.78 243.78" style="enable-background:new 0 0 243.78 243.78;" xml:space="preserve">
<g id="Calque_2">
	<rect x="-1.119" y="0.07" style="fill:#DFDFDE;" width="246.377" height="246.377"/>
</g>
<g id="Calque_1">
	<path style="fill:#151516;" d="M243.11,1.778v197.141c0,0-6.571,37.714-46.857,46H52.255c0,0-44-6.286-49.714-52.857V52.92
		c0,0,6.286-46.857,50.857-50.857L243.11,1.778z"/>
	<path style="fill:#DFDFDE;" d="M79.992,104.709c0,0-11.619,17.905,0,38.857s34.476,26.476,34.476,26.476s4.571,3.619,18.286,0
		s27.809-13.524,36.762-33.714c0,0,6.667-17.714-2.095-30.285c0,0,5.617-16.381,4.523-31.619c0,0-11.57-0.952-24.904,8.381
		c0,0-26.857-8-44,0.19c0,0-16.233-11.102-28.211-8.599C74.828,74.396,73.516,96.709,79.992,104.709z"/>
	<path style="fill:#151516;" d="M111.897,127.348c0,0-18.286,6.476-18.286-12.762C93.611,114.586,114.944,109.253,111.897,127.348z"
		/>
	<path style="fill:#151516;" d="M133.909,127.157c0,0,18.286,6.476,18.286-12.762C152.195,114.396,130.861,109.062,133.909,127.157z
		"/>
	<path style="fill:#151516;" d="M113.889,141.153l6.227,7.069c0.284,0.322,0.693,0.507,1.123,0.507h2.943
		c0.397,0,0.777-0.158,1.058-0.438l6.671-6.671c0.281-0.281,0.438-0.661,0.438-1.058v-1.813c0-0.826-0.67-1.496-1.496-1.496h-15.841
		c-0.826,0-1.496,0.67-1.496,1.496v1.415C113.516,140.528,113.649,140.879,113.889,141.153z"/>
</g>
</svg>
